<svg xmlns="http://www.w3.org/2000/svg" viewBox="0 0 48 48"><defs><style>.cls-1{fill:#201602;}</style></defs><title>Asset 21ldpi</title><g id="Layer_2" data-name="Layer 2"><g id="layer_1-2" data-name="layer 1"><path class="cls-1" d="M33.54,38.89A8.11,8.11,0,0,1,29,32h2a6.13,6.13,0,0,0,3.46,5.12Z"/><path class="cls-1" d="M14.46,38.89l-.92-1.78A6.13,6.13,0,0,0,17,32h2A8.11,8.11,0,0,1,14.46,38.89Z"/><path class="cls-1" d="M48,48H46v-.64a7,7,0,0,0-5.43-6.82L34.08,39l-9.71,3.89a1,1,0,0,1-.74,0L13.92,39l-6.49,1.5A7,7,0,0,0,2,47.36V48H0v-.64a9,9,0,0,1,7-8.77L13.78,37a1,1,0,0,1,.59,0L24,40.92l9.63-3.85a1,1,0,0,1,.59,0L41,38.59a9,9,0,0,1,7,8.77Z"/><path class="cls-1" d="M32,46a1,1,0,0,1-.35-.06l-8-3a1,1,0,0,1,0-1.87l10-4A1,1,0,0,1,35,38.27l-2,7a1,1,0,0,1-.51.62A1,1,0,0,1,32,46Zm-5.23-4,4.57,1.71,1.14-4Z"/><path class="cls-1" d="M16,46a1,1,0,0,1-.45-.11,1,1,0,0,1-.51-.62l-2-7a1,1,0,0,1,1.33-1.2l10,4a1,1,0,0,1,0,1.87l-8,3A1,1,0,0,1,16,46Zm-.48-6.31,1.14,4L21.23,42Z"/><rect class="cls-1" x="23" y="42" width="2" height="6"/><path class="cls-1" d="M24,25a7,7,0,1,1,7-7A7,7,0,0,1,24,25Zm0-12a5,5,0,1,0,5,5A5,5,0,0,0,24,13Z"/><path class="cls-1" d="M26,36H22a1,1,0,0,1-1-.88l-.55-4.62a12.64,12.64,0,0,1-2.8-1.16L14,32.22a1,1,0,0,1-1.32-.08L9.86,29.31A1,1,0,0,1,9.78,28l2.88-3.65a12.64,12.64,0,0,1-1.16-2.8L6.88,21A1,1,0,0,1,6,20V16a1,1,0,0,1,.88-1l4.62-.55a12.64,12.64,0,0,1,1.16-2.8L9.78,8a1,1,0,0,1,.08-1.32l2.83-2.83A1,1,0,0,1,14,3.78l3.65,2.88a12.64,12.64,0,0,1,2.8-1.16L21,.88A1,1,0,0,1,22,0h4a1,1,0,0,1,1,.88l.55,4.62a12.64,12.64,0,0,1,2.8,1.16L34,3.78a1,1,0,0,1,1.32.08l2.83,2.83A1,1,0,0,1,38.22,8l-2.88,3.65a12.64,12.64,0,0,1,1.16,2.8l4.62.55A1,1,0,0,1,42,16v4a1,1,0,0,1-.88,1l-4.62.55a12.64,12.64,0,0,1-1.16,2.8L38.22,28a1,1,0,0,1-.08,1.32l-2.83,2.83a1,1,0,0,1-1.32.08l-3.65-2.88a12.64,12.64,0,0,1-2.8,1.16L27,35.12A1,1,0,0,1,26,36Zm-3.11-2h2.22l.52-4.41a1,1,0,0,1,.78-.86,10.89,10.89,0,0,0,3.47-1.45,1,1,0,0,1,1.16.06l3.49,2.76,1.57-1.57L33.34,25a1,1,0,0,1-.06-1.16,10.89,10.89,0,0,0,1.45-3.47,1,1,0,0,1,.86-.78L40,19.11V16.89l-4.41-.52a1,1,0,0,1-.86-.78,10.89,10.89,0,0,0-1.45-3.47A1,1,0,0,1,33.34,11L36.1,7.47,34.53,5.9,31,8.66a1,1,0,0,1-1.16.06,10.89,10.89,0,0,0-3.47-1.45,1,1,0,0,1-.78-.86L25.11,2H22.89l-.52,4.41a1,1,0,0,1-.78.86,10.89,10.89,0,0,0-3.47,1.45A1,1,0,0,1,17,8.66L13.47,5.9,11.9,7.47,14.66,11a1,1,0,0,1,.06,1.16,10.89,10.89,0,0,0-1.45,3.47,1,1,0,0,1-.86.78L8,16.89v2.22l4.41.52a1,1,0,0,1,.86.78,10.89,10.89,0,0,0,1.45,3.47A1,1,0,0,1,14.66,25L11.9,28.53l1.57,1.57L17,27.34a1,1,0,0,1,1.16-.06,10.89,10.89,0,0,0,3.47,1.45,1,1,0,0,1,.78.86Z"/></g></g></svg>