<svg id="icons" xmlns="http://www.w3.org/2000/svg" viewBox="0 0 340 340"><path d="M161.553,82.325A72.324,72.324,0,0,1,89.229,154.65C-6.512,151.341-6.488,13.294,89.23,10A72.324,72.324,0,0,1,161.553,82.325Z" style="fill:#ffd071"/><path d="M147.176,228.04c-6.732-71.356-109.185-71.312-115.894,0L23.967,330H154.491Z" style="fill:#ffd071"/><path d="M54.721,85.857c-6.3,0-10.725,6.741-8.426,12.989,3.76,10.217,12.242,23.466,31.293,28.043a49.837,49.837,0,0,0,23.281,0c19.051-4.577,27.534-17.826,31.294-28.043,2.3-6.248-2.129-12.989-8.426-12.989Z" style="fill:#fff"/><path d="M319.783,326.679a11.337,11.337,0,0,1-16.034,0L256.6,279.532,272.635,263.5l47.148,47.148A11.338,11.338,0,0,1,319.783,326.679Z" style="fill:#4e73a8"/><path d="M297.784,212.213a89.45,89.45,0,0,1-89.451,89.451c-118.413-4.092-118.382-174.828,0-178.9A89.451,89.451,0,0,1,297.784,212.213Z" style="fill:#88b0ea"/><path d="M276.217,212.213A67.884,67.884,0,0,1,208.333,280.1c-89.863-3.1-89.839-132.676,0-135.768A67.884,67.884,0,0,1,276.217,212.213Z" style="fill:#fff"/><path d="M212.333,212.213c-.09,5.258-7.911,5.257-8,0C204.423,206.955,212.244,206.956,212.333,212.213Z" style="fill:#88b0ea"/><path d="M189.685,212.213c-.09,5.258-7.911,5.257-8,0C181.775,206.955,189.6,206.956,189.685,212.213Z" style="fill:#88b0ea"/><path d="M234.981,212.213c-.09,5.258-7.911,5.257-8,0C227.07,206.955,234.892,206.956,234.981,212.213Z" style="fill:#88b0ea"/><path d="M89.228,158.649A76.411,76.411,0,0,1,12.9,82.325c3.586-101.018,149.079-100.991,152.65,0A76.412,76.412,0,0,1,89.228,158.649ZM89.228,14A68.4,68.4,0,0,0,20.9,82.325c3.21,90.429,133.453,90.4,136.65,0A68.4,68.4,0,0,0,89.228,14Z" style="fill:#383a49"/><path d="M154.491,334H23.967a4,4,0,0,1-3.99-4.286l7.316-101.96a62.132,62.132,0,0,1,81.269-54.579,4,4,0,1,1-2.49,7.6,54.133,54.133,0,0,0-70.8,47.548L28.263,326H150.194l-3.22-44.869c-.291-5.234,7.523-5.832,7.979-.572l3.528,49.155A4.026,4.026,0,0,1,154.491,334Z" style="fill:#383a49"/><path d="M89.228,132.261c-24,.516-41.867-16.371-46.687-32.034a13.919,13.919,0,0,1,1.636-12.763,12.748,12.748,0,0,1,10.544-5.607h69.016c9.036-.247,15.529,10.107,12.18,18.371C131.077,115.905,113.241,132.771,89.228,132.261Zm-34.507-42.4c-3.622-.059-6.021,4.35-4.672,7.607C55.713,115.412,76.911,128.689,99.935,123c17.3-4.155,25.032-16.18,28.474-25.535,1.343-3.254-1.045-7.668-4.672-7.607Z" style="fill:#383a49"/><path d="M311.765,333.992a15.29,15.29,0,0,1-10.844-4.483L268.313,296.9a4,4,0,0,1,5.657-5.656l32.607,32.609a7.338,7.338,0,1,0,10.377-10.378L274.93,271.45a4,4,0,0,1,5.657-5.656l42.024,42.023C332.288,317.239,325.126,334.235,311.765,333.992Z" style="fill:#383a49"/><path d="M208.333,305.664a93.557,93.557,0,0,1-93.451-93.451c4.39-123.685,182.531-123.653,186.9,0A93.557,93.557,0,0,1,208.333,305.664Zm0-178.9a85.548,85.548,0,0,0-85.451,85.451c4.014,113.1,166.9,113.067,170.9,0A85.547,85.547,0,0,0,208.333,126.762Z" style="fill:#383a49"/><path d="M208.333,284.1a71.966,71.966,0,0,1-71.884-71.885c3.377-95.14,140.4-95.115,143.768,0A71.965,71.965,0,0,1,208.333,284.1Zm0-135.769a63.956,63.956,0,0,0-63.884,63.884c3,84.553,124.78,84.531,127.768,0A63.956,63.956,0,0,0,208.333,148.329Z" style="fill:#383a49"/><path d="M67.141,51.524a4,4,0,0,0-4,4v2.99a4,4,0,1,0,8,0v-2.99A4,4,0,0,0,67.141,51.524Z" style="fill:#383a49"/><path d="M111.317,62.514a4,4,0,0,0,4-4v-2.99a4,4,0,0,0-8,0v2.99A4,4,0,0,0,111.317,62.514Z" style="fill:#383a49"/></svg>